<svg width="21" height="25" viewBox="0 0 21 25" fill="none" xmlns="http://www.w3.org/2000/svg">
<path d="M5.58008 24.2549H15.4307C16.9668 24.2549 17.998 23.2559 18.0732 21.7197L18.8145 6.10059H20.1035C20.5439 6.10059 20.8984 5.72461 20.8984 5.28418C20.8984 4.84375 20.5439 4.47852 20.1035 4.47852H15.1943V2.83496C15.1943 1.27734 14.1846 0.332031 12.5303 0.332031H8.44824C6.79395 0.332031 5.78418 1.27734 5.78418 2.83496V4.47852H0.907227C0.477539 4.47852 0.101562 4.84375 0.101562 5.28418C0.101562 5.73535 0.477539 6.10059 0.907227 6.10059H2.19629L2.9375 21.7305C3.0127 23.2666 4.02246 24.2549 5.58008 24.2549ZM7.49219 2.94238C7.49219 2.33008 7.92188 1.93262 8.56641 1.93262H12.4121C13.0566 1.93262 13.4863 2.33008 13.4863 2.94238V4.47852H7.49219V2.94238ZM5.73047 22.6328C5.11816 22.6328 4.65625 22.1709 4.62402 21.5371L3.87207 6.10059H17.085L16.376 21.5371C16.3545 22.1816 15.8926 22.6328 15.2588 22.6328H5.73047ZM7.32031 20.7959C7.72852 20.7959 7.99707 20.5381 7.98633 20.1621L7.65332 8.66797C7.64258 8.29199 7.37402 8.04492 6.9873 8.04492C6.5791 8.04492 6.31055 8.30273 6.32129 8.67871L6.64355 20.1621C6.6543 20.5488 6.92285 20.7959 7.32031 20.7959ZM10.5 20.7959C10.9082 20.7959 11.1982 20.5381 11.1982 20.1621V8.67871C11.1982 8.30273 10.9082 8.04492 10.5 8.04492C10.0918 8.04492 9.8125 8.30273 9.8125 8.67871V20.1621C9.8125 20.5381 10.0918 20.7959 10.5 20.7959ZM13.6904 20.7959C14.0771 20.7959 14.3457 20.5488 14.3564 20.1621L14.6787 8.67871C14.6895 8.30273 14.4209 8.04492 14.0127 8.04492C13.626 8.04492 13.3574 8.29199 13.3467 8.67871L13.0244 20.1621C13.0137 20.5381 13.2822 20.7959 13.6904 20.7959Z" fill="white"/>
</svg>
